<svg width="66" height="67" viewBox="0 0 66 67" fill="none" xmlns="http://www.w3.org/2000/svg">
<path d="M53.2492 29.3525L24.5834 56.9696V66.4167H7.50002C3.70752 66.4167 0.666687 63.4871 0.666687 59.8333V7.16666C0.666687 5.42065 1.38663 3.74616 2.66812 2.51154C3.94962 1.27693 5.68771 0.583328 7.50002 0.583328H10.9167V23.625L19.4584 18.6875L28 23.625V0.583328H48.5C50.3123 0.583328 52.0504 1.27693 53.3319 2.51154C54.6134 3.74616 55.3334 5.42065 55.3334 7.16666V27.9042C54.5817 28.2992 53.8642 28.76 53.2492 29.3525ZM31.4167 59.7017V66.4167H38.3867L59.3309 46.2717L52.3609 39.5237L31.4167 59.7017ZM65.0709 38.3388L60.5609 33.9937C59.8775 33.3354 58.75 33.3354 58.1009 33.9937L54.7525 37.2196L61.7225 43.9346L65.0709 40.7087C65.7542 40.0833 65.7542 38.9971 65.0709 38.3388Z" fill="#008F8C"/>
</svg>
