<svg width="68" height="60" viewBox="0 0 68 60" fill="none" xmlns="http://www.w3.org/2000/svg">
<path d="M65.6303 20.9671L45.2985 18.2505L36.2096 1.31047C35.9614 0.84666 35.553 0.471197 35.0485 0.242974C33.7832 -0.331264 32.2457 0.147268 31.6131 1.31047L22.5242 18.2505L2.19241 20.9671C1.63187 21.0407 1.11937 21.2836 0.726984 21.6517C0.252615 22.1 -0.00878383 22.703 0.000225387 23.3284C0.00923461 23.9537 0.287915 24.5502 0.775031 24.9867L15.4854 38.1721L12.01 56.7907C11.9285 57.2238 11.9806 57.6692 12.1605 58.0765C12.3403 58.4837 12.6407 58.8365 13.0275 59.0948C13.4144 59.3531 13.8722 59.5066 14.3491 59.5378C14.826 59.5691 15.3028 59.4769 15.7256 59.2717L33.9114 50.4814L52.0971 59.2717C52.5936 59.5146 53.1701 59.5956 53.7227 59.5072C55.116 59.2864 56.053 58.0717 55.8127 56.7907L52.3373 38.1721L67.0477 24.9867C67.4481 24.626 67.7123 24.1548 67.7924 23.6395C68.0086 22.3511 67.0317 21.1585 65.6303 20.9671Z" fill="#008F8C"/>
</svg>
