<svg width="82" height="72" viewBox="0 0 82 72" fill="none" xmlns="http://www.w3.org/2000/svg">
<path d="M56.375 5.25C56.375 3.89077 56.915 2.5872 57.8761 1.62608C58.8372 0.664954 60.1408 0.125 61.5 0.125H71.75C73.1092 0.125 74.4128 0.664954 75.3739 1.62608C76.335 2.5872 76.875 3.89077 76.875 5.25V66.75H79.4375C80.1171 66.75 80.7689 67.02 81.2495 67.5005C81.73 67.9811 82 68.6329 82 69.3125C82 69.9921 81.73 70.6439 81.2495 71.1245C80.7689 71.605 80.1171 71.875 79.4375 71.875H2.5625C1.88288 71.875 1.2311 71.605 0.750539 71.1245C0.269977 70.6439 0 69.9921 0 69.3125C0 68.6329 0.269977 67.9811 0.750539 67.5005C1.2311 67.02 1.88288 66.75 2.5625 66.75H5.125V51.375C5.125 50.0158 5.66495 48.7122 6.62608 47.7511C7.5872 46.79 8.89077 46.25 10.25 46.25H20.5C21.8592 46.25 23.1628 46.79 24.1239 47.7511C25.085 48.7122 25.625 50.0158 25.625 51.375V66.75H30.75V30.875C30.75 29.5158 31.29 28.2122 32.2511 27.2511C33.2122 26.29 34.5158 25.75 35.875 25.75H46.125C47.4842 25.75 48.7878 26.29 49.7489 27.2511C50.71 28.2122 51.25 29.5158 51.25 30.875V66.75H56.375V5.25Z" fill="#008F8C"/>
</svg>
